PathFileType	4	(X/Y/Z)	C:\Users\Basilio\Documents\Thesis Gigler\squatting_fais\c3dfiles\041\SJ_pre2\markers_experimental.trc
DataRate	CameraRate	NumFrames	NumMarkers	Units	OrigDataRate	OrigDataStartFrame	OrigNumFrames
200.000000	200.000000	4	62	mm	200.000000	347	1390
Frame#	Time	FHD			LBHD			RBHD			C7			T10			CLAV			LSHO			LUUPA			LMUPA			LDUPA			LLEP			LMEP			LRAD			LUL			LRFIN			RSHO			RUPA1			RMUPA			RDUPA			RLEP			RMEP			RRAD			RUL			RUFIN			LASI			RASI			USACR			LSACR			RSACR			LTHI1			LTHI2			LTHI3			LTHI4			LLFC			LMFC			LTIB1			LTIB2			LTIB3			LTIB4			LLMAL			LMMAL			LHEE			LMT1			LMT2			LMT5			RTHI			RTHI2			RTHI3			RTHI4			RLFC			RMFC			RTIB1			RTIB2			RTIB3			RTIB4			RLMAL			RMMAL			RHEE			RMT1			RMT2			RMT5			*61			
		X1	Y1	Z1	X2	Y2	Z2	X3	Y3	Z3	X4	Y4	Z4	X5	Y5	Z5	X6	Y6	Z6	X7	Y7	Z7	X8	Y8	Z8	X9	Y9	Z9	X10	Y10	Z10	X11	Y11	Z11	X12	Y12	Z12	X13	Y13	Z13	X14	Y14	Z14	X15	Y15	Z15	X16	Y16	Z16	X17	Y17	Z17	X18	Y18	Z18	X19	Y19	Z19	X20	Y20	Z20	X21	Y21	Z21	X22	Y22	Z22	X23	Y23	Z23	X24	Y24	Z24	X25	Y25	Z25	X26	Y26	Z26	X27	Y27	Z27	X28	Y28	Z28	X29	Y29	Z29	X30	Y30	Z30	X31	Y31	Z31	X32	Y32	Z32	X33	Y33	Z33	X34	Y34	Z34	X35	Y35	Z35	X36	Y36	Z36	X37	Y37	Z37	X38	Y38	Z38	X39	Y39	Z39	X40	Y40	Z40	X41	Y41	Z41	X42	Y42	Z42	X43	Y43	Z43	X44	Y44	Z44	X45	Y45	Z45	X46	Y46	Z46	X47	Y47	Z47	X48	Y48	Z48	X49	Y49	Z49	X50	Y50	Z50	X51	Y51	Z51	X52	Y52	Z52	X53	Y53	Z53	X54	Y54	Z54	X55	Y55	Z55	X56	Y56	Z56	X57	Y57	Z57	X58	Y58	Z58	X59	Y59	Z59	X60	Y60	Z60	X61	Y61	Z61	X62	Y62	Z62	

348	1.735	-196.4211730957032	1749.864990234375	-914.9237060546877	-354.7228088378907	1656.192504882813	-1000.509643554688	-344.5561828613282	1660.585327148438	-847.6248168945315	-384.323944091797	1521.392456054688	-941.0896606445315	-418.1856079101564	1206.791748046875	-941.3638916015627	-226.9619750976563	1456.261840820313	-932.0493164062502	-286.5932312011719	1513.268798828125	-1109.27734375	-345.7692871093751	1383.87109375	-1251.569702148438	-328.5257263183594	1337.480590820313	-1249.798583984375	-371.0981140136719	1334.6689453125	-1293.73779296875	-385.4302673339845	1289.327270507813	-1318.724365234375	-448.834930419922	1256.525634765625	-1260.252075195313	-328.7621765136719	1087.27099609375	-1151.214965820313	-310.9298706054688	1046.453247070313	-1211.153442382813	-280.0313720703126	1066.121704101563	-1112.598266601563	-296.7252197265626	1511.52099609375	-764.0708618164064	-389.0927734375001	1372.06689453125	-613.8317871093751	-349.4456481933594	1340.153930664063	-615.3856811523439	-382.3468017578126	1310.664306640625	-578.0496826171876	-384.564910888672	1262.636962890625	-561.0601196289064	-453.9423828125001	1243.97021484375	-621.8642578125001	-358.9898681640626	1065.929321289063	-726.6388549804689	-312.9300537109376	1051.583984375	-766.4475097656251	-337.4682922363282	1022.246948242188	-667.6043090820314	-248.8569946289063	1006.78076171875	-1045.447143554688	-267.0887451171876	995.1700439453127	-828.8469238281252	-429.6358032226564	1098.071411132813	-946.1823730468752	-445.9232177734376	1075.757202148438	-975.3425292968752	-454.4103393554689	1073.659545898438	-922.077087402344	-386.0163879394532	827.062683105469	-1148.041625976563	-355.5668945312501	748.1119995117189	-1153.224731445313	-307.9410095214844	748.0080566406251	-1142.489135742188	-387.4949340820314	696.2154541015626	-1147.542236328125	-378.1282348632813	515.3822631835939	-1153.693115234375	-366.8707885742188	481.1652221679689	-1039.2138671875	-343.1187438964844	319.8660888671876	-1127.044921875	-392.5040283203126	284.3793945312501	-1193.578247070313	-354.9951782226563	278.6775207519532	-1169.248168945313	-351.9487609863282	196.9787292480469	-1148.599975585938	-409.1401367187501	101.7203140258789	-1197.860229492188	-366.2426452636719	103.6511993408203	-1118.012329101563	-463.0698547363282	52.93230438232423	-1161.59130859375	-246.3497619628907	59.94185256958009	-1144.325317382813	-241.1613311767579	59.53868484497072	-1189.5986328125	-282.4566955566407	34.54742813110352	-1244.12841796875	-398.7763671875001	758.5817260742189	-744.8268432617189	-359.0640869140626	707.2709960937501	-730.6040649414064	-326.2056884765626	709.8051147460939	-731.0905761718751	-380.7087402343751	625.3250122070314	-740.3131713867189	-366.2999267578126	503.1622009277345	-721.7488403320314	-335.9059448242188	471.175506591797	-833.1250610351565	-334.7945861816407	335.6071777343751	-705.4074707031251	-420.9400939941407	264.4214477539063	-688.1044921875001	-374.2253417968751	260.4694519042969	-684.4778442382814	-351.8165588378907	208.7623291015626	-704.6466674804689	-411.9723205566407	95.2180862426758	-681.1328735351564	-377.9101562500001	102.6749801635742	-758.9006347656251	-465.4684448242189	49.68614578247072	-728.8649902343751	-247.0271148681641	52.93666076660158	-721.8500366210939	-248.3762969970704	57.58436203002931	-670.0692749023439	-295.1133728027344	36.85652542114259	-622.9722900390626	-4217.148437500001	853.1448364257815	-3944.742675781251	
349	1.74	-196.441635131836	1749.943603515625	-914.298767089844	-354.7772521972657	1656.28125	-999.7090454101565	-344.4957275390626	1660.780883789063	-846.656677246094	-384.3285522460939	1521.457763671875	-940.3360595703127	-418.0515441894532	1206.844970703125	-940.8603515625002	-226.8031158447266	1456.470947265625	-931.5052490234377	-286.6216430664063	1513.5703125	-1108.5126953125	-345.9502258300782	1384.259643554688	-1250.861572265625	-328.5548400878907	1337.813842773438	-1249.173583984375	-371.2398071289063	1335.024169921875	-1293.036987304688	-385.4429321289064	1289.641845703125	-1318.043823242188	-448.9706115722657	1256.775512695313	-1259.626708984375	-328.3346252441407	1087.521850585938	-1150.530639648438	-310.9610290527344	1046.722534179688	-1210.795288085938	-280.0082397460938	1066.3662109375	-1112.099731445313	-296.5320129394532	1511.558715820313	-763.4262084960939	-388.7023010253907	1371.825073242188	-613.0430908203126	-348.9966125488282	1340.002685546875	-614.5138549804689	-381.5567016601563	1310.527587890625	-577.3805541992189	-384.1160278320314	1262.316528320313	-560.1210327148439	-453.5224914550782	1243.993530273438	-621.0577392578126	-358.7944641113282	1065.916137695313	-726.1679687500001	-312.6580810546876	1051.590698242188	-766.0130615234376	-337.1237182617188	1022.231811523438	-667.1711425781251	-248.8105468750001	1006.871704101563	-1044.996704101563	-267.0175170898438	995.267517089844	-828.4720458984377	-429.5791015625001	1098.05517578125	-945.7353515625002	-445.7885131835939	1075.712036132813	-974.9143066406252	-454.3226013183595	1073.6533203125	-921.5366210937502	-385.9425354003907	826.9692993164065	-1147.56689453125	-355.5715637207032	748.0688476562501	-1152.975219726563	-308.3735351562501	748.2847900390626	-1142.2548828125	-387.3965454101564	696.1507568359376	-1147.217651367188	-377.7478027343751	515.3546752929689	-1153.404907226563	-366.1985168457032	481.056121826172	-1038.925415039063	-342.9292907714844	319.8146667480469	-1126.814086914063	-393.0272216796876	284.7324523925782	-1193.369384765625	-354.7606506347657	278.3271484375001	-1169.223022460938	-351.7675170898438	196.9079895019532	-1148.599243164063	-408.9998474121095	101.5623092651367	-1197.861083984375	-366.2080383300782	103.6357345581055	-1117.979614257813	-463.0503234863282	52.85455703735353	-1161.552978515625	-246.3189239501954	59.92850494384767	-1144.336181640625	-241.1464538574219	59.54071044921876	-1189.615356445313	-282.4343872070313	34.55040740966798	-1244.1591796875	-398.350555419922	758.5639648437501	-744.3122558593751	-358.7949218750001	707.1058349609376	-730.0514526367189	-325.7974548339844	709.8232421875001	-730.6795654296876	-380.4031372070313	625.3682861328126	-739.9433593750001	-366.0543518066407	503.2005004882814	-721.4645996093751	-335.0615539550782	471.0421142578126	-832.7021484375002	-334.6224670410157	335.4691162109376	-705.1672973632814	-420.7492980957032	264.4714355468751	-688.0863647460939	-374.0599060058594	260.4412536621094	-684.3394775390626	-351.6992187500001	208.7301483154297	-704.5151977539064	-411.9431152343751	95.24429321289064	-681.1392822265626	-377.8191223144532	102.6635437011719	-758.8529663085939	-465.4801025390626	49.74549484252931	-728.9100341796876	-247.0155181884766	52.95283508300783	-721.8292236328126	-248.3999938964844	57.55818557739259	-670.0662231445314	-295.0405273437501	36.69570922851563	-622.9799194335939	-4216.784179687501	853.1290283203127	-3944.771972656251	
350	1.745	-196.5481719970704	1750.163330078125	-913.4900512695315	-355.0960388183594	1656.473754882813	-998.798034667969	-344.5386657714844	1660.822509765625	-845.8743896484377	-384.3326110839845	1521.500122070313	-939.5403442382815	-417.9514160156251	1206.865234375	-940.3963623046877	-226.5412750244141	1456.624389648438	-930.9084472656252	-286.6468200683594	1513.864990234375	-1107.81298828125	-346.0873107910157	1384.636962890625	-1250.253295898438	-328.5856018066407	1338.11767578125	-1248.551879882813	-371.3583068847657	1335.399169921875	-1292.456787109375	-385.4076538085939	1290.028442382813	-1317.580810546875	-449.0675659179689	1257.066650390625	-1258.86865234375	-328.2050781250001	1087.67431640625	-1150.180541992188	-311.0112304687501	1047.028686523438	-1210.275146484375	-280.1968688964844	1066.556884765625	-1111.673217773438	-296.4563903808594	1511.575317382813	-762.6231689453126	-388.0285034179689	1371.900024414063	-612.0875854492189	-348.4043273925782	1339.929931640625	-613.7427978515626	-381.0725708007813	1310.380126953125	-576.6672363281251	-383.4977722167969	1262.144653320313	-559.3819580078126	-452.8943481445314	1243.879272460938	-620.0865478515626	-358.4906616210938	1065.960693359375	-725.6939697265626	-312.5023498535157	1051.59912109375	-765.6414794921876	-336.7197570800782	1022.118835449219	-666.7892456054689	-249.1008758544922	1006.9150390625	-1044.48046875	-266.8869934082032	995.366882324219	-828.1165161132815	-429.7296447753907	1098.209716796875	-945.2996826171877	-445.7798156738282	1075.72021484375	-974.388366699219	-454.1268005371095	1073.668212890625	-920.9237060546877	-385.9727783203126	826.9168701171877	-1147.12060546875	-355.4413452148438	748.0507812500001	-1152.640991210938	-308.2672119140626	748.3153686523439	-1142.0068359375	-387.321258544922	696.2092285156251	-1146.918212890625	-377.4145202636719	515.3344726562501	-1153.099487304688	-365.6153564453126	480.9099731445314	-1038.843383789063	-342.5479736328126	319.7157897949219	-1126.824829101563	-392.8712158203126	284.7356567382813	-1193.227783203125	-354.4451599121094	278.2146911621094	-1169.10400390625	-351.6779174804688	196.8647460937501	-1148.513793945313	-408.9642944335939	101.6058654785157	-1197.754272460938	-366.1881103515626	103.6445846557617	-1117.937744140625	-463.0357666015626	52.92238998413087	-1161.531127929688	-246.2607116699219	59.98844146728517	-1144.316284179688	-241.1656494140626	59.55437469482423	-1189.59619140625	-282.5256347656251	34.59326934814454	-1244.124633789063	-398.0651855468751	758.6234741210939	-743.8328857421876	-358.4158325195313	707.2601318359376	-729.5399780273439	-325.2769775390626	709.8549194335939	-729.9191894531251	-380.0632324218751	625.3537597656251	-739.6494140625001	-365.7473144531251	503.2200317382814	-721.1970825195314	-334.7211914062501	471.0940856933595	-832.452331542969	-334.3706054687501	335.4246215820313	-704.9335937500001	-420.505340576172	264.4464721679688	-687.9844360351564	-373.8519287109376	260.4649963378907	-684.2742309570314	-351.4972229003907	208.7075958251954	-704.4562988281251	-411.9179687500001	95.25482177734376	-681.1986694335939	-377.8194274902344	102.6970748901367	-758.8446044921876	-465.4690246582032	49.80074310302736	-728.9348144531251	-246.7927398681641	53.02634429931642	-722.0949096679689	-248.2699432373047	57.43701553344728	-670.0013427734376	-295.0564575195313	36.62248611450196	-622.9437866210939	-4216.932128906251	853.123962402344	-3944.735351562501	
351	1.75	-196.0215606689454	1749.764892578125	-912.5544433593752	-355.0315856933594	1656.543579101563	-997.9478759765627	-344.3575439453126	1660.906372070313	-845.2221679687502	-384.3323059082032	1521.556884765625	-938.728454589844	-417.8565368652345	1206.870239257813	-939.8631591796877	-226.6785430908204	1456.743774414063	-930.005310058594	-286.6881408691407	1514.07666015625	-1107.1787109375	-346.0490417480469	1384.876342773438	-1249.629760742188	-328.7191467285157	1338.443359375	-1247.846435546875	-371.4994506835938	1335.573974609375	-1291.700805664063	-385.7089843750001	1290.304809570313	-1316.79296875	-449.1701660156251	1257.446655273438	-1258.170654296875	-328.2247619628907	1087.915405273438	-1149.655883789063	-311.0511779785157	1047.224365234375	-1209.94140625	-280.1991882324219	1066.65283203125	-1111.34326171875	-296.2768859863282	1511.546630859375	-761.8854370117189	-387.4206542968751	1371.78173828125	-611.4194335937501	-347.8205566406251	1339.816650390625	-613.1334228515626	-380.5040893554688	1310.173950195313	-575.8543701171876	-382.8858032226563	1262.13720703125	-558.7824096679689	-452.4828491210939	1243.703369140625	-619.1992187500001	-358.1062011718751	1065.9111328125	-725.1074218750001	-312.3966979980469	1051.57177734375	-765.2276611328126	-336.3007812500001	1022.025390625	-666.3568115234376	-249.2205352783204	1007.076354980469	-1044.053100585938	-266.7292480468751	995.466979980469	-827.598815917969	-429.7021789550782	1098.27978515625	-944.7189941406252	-445.8275756835939	1075.807373046875	-973.7403564453127	-454.352264404297	1073.672607421875	-920.6464843750002	-385.9691772460939	826.8199462890627	-1146.738525390625	-355.3584289550782	747.9743652343751	-1152.385131835938	-308.1571350097657	748.3610229492189	-1141.789306640625	-387.2318115234376	696.1127319335939	-1146.601196289063	-376.9554443359376	515.2792968750001	-1152.85546875	-365.1562500000001	480.8513183593751	-1038.569702148438	-342.3525390625001	319.5717468261719	-1126.603393554688	-392.7103576660157	284.7114257812501	-1193.095581054688	-354.2886047363282	278.1085205078126	-1169.078125	-351.5273437500001	196.7976531982422	-1148.428955078125	-408.993865966797	101.6665802001953	-1197.744262695313	-366.1449584960938	103.6195220947266	-1117.87451171875	-463.1141967773439	52.95661926269533	-1161.510131835938	-246.2980499267579	60.02925872802736	-1144.286987304688	-241.1569213867188	59.5570640563965	-1189.594848632813	-282.4721374511719	34.58866882324219	-1244.082885742188	-397.6441040039064	758.5819702148439	-743.3879394531251	-358.0868530273438	707.1544189453126	-729.0525512695314	-324.9382934570313	709.6353759765626	-729.8938598632814	-379.6770935058594	625.2734375000001	-739.2875976562501	-365.3490295410157	503.2250366210939	-720.8862915039064	-334.6930541992188	471.2225036621095	-832.3267822265627	-333.8553466796876	335.4725952148438	-704.8898925781251	-420.205535888672	264.3652038574219	-687.8524780273439	-373.6841125488282	260.4116516113282	-684.1647949218751	-351.3515319824219	208.5444488525391	-704.2868041992189	-411.9026184082032	95.2723846435547	-681.1992187500001	-377.7311401367188	102.7259902954102	-758.9014282226564	-465.4354248046876	49.84371185302736	-729.0084838867189	-246.8455352783204	53.04389572143556	-722.0607299804689	-248.2581176757813	57.39656448364259	-669.9590454101564	-295.0657043457032	36.6087875366211	-622.9512939453126	-4216.687011718751	853.0904541015627	-3944.781738281251	
